<?xml version="1.0" encoding="UTF-8" standalone="no"?>
<!-- Created with Inkscape (http://www.inkscape.org/) -->

<svg
   width="32"
   height="32"
   viewBox="0 0 8.4666666 8.4666666"
   version="1.1"
   id="svg1"
   inkscape:version="1.4 (e7c3feb100, 2024-10-09)"
   sodipodi:docname="Logotipo1.svg"
   xmlns:inkscape="http://www.inkscape.org/namespaces/inkscape"
   xmlns:sodipodi="http://sodipodi.sourceforge.net/DTD/sodipodi-0.dtd"
   xmlns="http://www.w3.org/2000/svg"
   xmlns:svg="http://www.w3.org/2000/svg">
  <sodipodi:namedview
     id="namedview1"
     pagecolor="#ffffff"
     bordercolor="#000000"
     borderopacity="0.25"
     inkscape:showpageshadow="2"
     inkscape:pageopacity="0.0"
     inkscape:pagecheckerboard="true"
     inkscape:deskcolor="#d1d1d1"
     inkscape:document-units="px"
     inkscape:zoom="7.9192476"
     inkscape:cx="8.2709878"
     inkscape:cy="10.733343"
     inkscape:window-width="1920"
     inkscape:window-height="1008"
     inkscape:window-x="0"
     inkscape:window-y="0"
     inkscape:window-maximized="1"
     inkscape:current-layer="layer1" />
  <defs
     id="defs1" />
  <g
     inkscape:label="Capa 1"
     inkscape:groupmode="layer"
     id="layer1">
    <path
       id="path1"
       style="font-weight:bold;font-size:2.82222px;font-family:'Mononoki Nerd Font Propo';-inkscape-font-specification:'Mononoki Nerd Font Propo, Bold';letter-spacing:0px;word-spacing:0px;fill:#5a2673;fill-opacity:1;stroke:none;stroke-width:0;stroke-linecap:round;stroke-linejoin:round;stroke-dasharray:none;paint-order:stroke fill markers"
       d="m 1.602845,1.7137785 c -0.1379788,7.1e-5 -0.2633742,0.080821 -0.3198771,0.2067058 0,0 -0.1233665,0.2604828 -0.1855184,0.4898925 -0.10132186,0.3740547 -0.19740387,0.8993918 -0.19740387,2.0949626 0,0.6637719 0.21233247,1.3342738 0.69711497,1.8412312 0.4847825,0.5069555 1.2299855,0.8278565 2.2024495,0.8278565 0.9607717,0 1.7054039,-0.2637403 2.1983154,-0.7524089 C 6.1294084,6.2916674 6.2408814,6.1472394 6.3338224,5.9915536 6.7562439,5.9889536 7.0644884,5.8908232 7.2593472,5.6959644 7.4608832,5.5024936 7.5616542,5.1958312 7.5616542,4.7766406 V 2.3587004 c 0,-0.06046 -0.01902,-0.111105 -0.05529,-0.1514119 -0.03628,-0.04031 -0.08423,-0.064804 -0.144694,-0.072864 C 6.962632,2.0860445 6.6358192,2.0620775 6.3818854,2.0620775 6.3491554,1.9842975 6.3193574,1.9204841 6.3193574,1.9204841 6.2628574,1.7946052 6.1379759,1.7138483 5.999997,1.7137783 Z m 5.0596395,0.9575643 c 0.1627108,0 0.2935221,0.1483884 0.2935221,0.3327962 v 1.9342489 c 0,0.1844078 -0.1308113,0.3327962 -0.2935221,0.3327962 -0.1627099,0 -0.2935222,-0.1483884 -0.2935222,-0.3327962 V 3.004139 c 0,-0.1844078 0.1308123,-0.3327962 0.2935222,-0.3327962 z m -3.409611,0.041341 c 0.05455,6e-7 0.1015599,0.013921 0.1405599,0.042891 0.04005,0.02892 0.066408,0.06917 0.078548,0.1188558 l 0.2320271,0.9281087 c 0.0016,0.006 0.00207,0.013287 0.00207,0.021187 0,0.01664 -0.0059,0.031232 -0.01757,0.042892 -0.011279,0.01133 -0.026928,0.01602 -0.044958,0.01602 h -0.056327 c -0.01788,0 -0.034436,-0.0041 -0.047026,-0.013953 -0.012589,-0.0099 -0.020621,-0.025221 -0.025321,-0.042891 l -0.07235,-0.287321 H 3.0616707 l -0.072347,0.287321 c -0.0037,0.01708 -0.012431,0.032582 -0.025322,0.042891 -0.01297,0.010373 -0.028995,0.013953 -0.047025,0.013953 l -0.054777,0.00207 c -0.01893,0 -0.036266,-0.0066 -0.048576,-0.01757 -0.010633,-0.01195 -0.015503,-0.027808 -0.015503,-0.044958 0,-0.0063 5.37e-4,-0.01247 0.00207,-0.01757 L 3.0306648,2.8728809 c 0.01325,-0.04859 0.040168,-0.088469 0.080098,-0.1173055 0.03993,-0.02884 0.08856,-0.042891 0.1421107,-0.042892 z M 1.955795,2.7281868 h 0.054777 c 0.01948,0 0.037083,0.0063 0.049093,0.019637 0.01333,0.01201 0.01912,0.029096 0.01912,0.048576 v 0.9084717 h 0.5333007 c 0.01862,0 0.036303,0.0068 0.049093,0.019637 0.012827,0.01279 0.019637,0.029966 0.019637,0.048576 v 0.042892 c 0,0.01861 -0.0068,0.034235 -0.019637,0.047026 -0.01279,0.012784 -0.030473,0.021704 -0.049093,0.021704 H 1.955795 c -0.01862,0 -0.035786,-0.0089 -0.048576,-0.021704 C 1.894392,3.8502105 1.887582,3.8345855 1.887582,3.8159755 v -1.019576 c 0,-0.01862 0.0068,-0.035786 0.019637,-0.048576 0.01279,-0.012827 0.029966,-0.019637 0.048576,-0.019637 z m 1.8226278,0 h 0.7555094 c 0.01862,0 0.036303,0.0068 0.049093,0.019637 0.013327,0.01201 0.019637,0.029096 0.019637,0.048576 v 0.041341 c 0,0.01862 -0.0068,0.035796 -0.019637,0.048576 -0.01279,0.012827 -0.030473,0.019637 -0.049093,0.019637 H 4.2507454 v 0.910022 c 0,0.01861 -0.0063,0.034235 -0.01912,0.047026 -0.01202,0.013384 -0.029613,0.021704 -0.049093,0.021704 h -0.054777 c -0.01862,0 -0.035786,-0.0089 -0.048576,-0.021704 -0.012827,-0.012791 -0.019637,-0.028416 -0.019637,-0.047026 V 2.9059538 H 3.7763557 c -0.018609,0 -0.034235,-0.0068 -0.047025,-0.019637 -7.6e-4,-6.1e-4 -0.00198,-0.00127 -0.00258,-0.00207 -0.01158,-0.01289 -0.01757,-0.028189 -0.01757,-0.046509 v -0.041338 c 0,-0.01832 0.006,-0.035676 0.01757,-0.048576 6.8e-4,-5.4e-5 0.00188,-5.4e-5 0.00258,0 0.01295,-0.012927 0.029613,-0.019637 0.049092,-0.019637 z m 1.072286,0 h 0.5622395 c 0.01862,0 0.036303,0.0068 0.049093,0.019637 0.01333,0.01201 0.01912,0.029096 0.01912,0.048576 v 0.041341 c 0,0.01948 -0.0062,0.035636 -0.01912,0.048576 v 5.167e-4 5.168e-4 5.168e-4 5.167e-4 c -0.0129,0.01158 -0.030773,0.01757 -0.049093,0.01757 H 4.9736987 v 0.287321 h 0.4061767 c 0.01862,0 0.035786,0.0063 0.048576,0.01912 0.012827,0.01279 0.019637,0.030483 0.019637,0.049093 v 0.042891 c 0,0.01862 -0.0068,0.036303 -0.019637,0.049093 -0.01279,0.01283 -0.029966,0.01912 -0.048576,0.01912 H 4.9736987 v 0.3322795 h 0.4743896 c 0.01862,0 0.036303,0.0068 0.049093,0.019637 0.01283,0.01279 0.01912,0.029966 0.01912,0.048576 v 0.042892 c 0,0.01861 -0.0063,0.034235 -0.01912,0.047026 -0.01279,0.012784 -0.030483,0.021704 -0.049093,0.021704 H 4.8507088 c -0.01862,0 -0.036303,-0.0089 -0.049093,-0.021704 -0.012827,-0.012792 -0.019637,-0.028417 -0.019637,-0.047026 v -1.019576 c 0,-0.01862 0.0068,-0.035786 0.019637,-0.048576 0.01279,-0.012827 0.030483,-0.019637 0.049093,-0.019637 z M 3.2528735,2.8904509 c -0.0091,0 -0.017254,0.00118 -0.023254,0.00568 -0.0061,0.0038 -0.00862,0.009 -0.00982,0.013953 L 3.1066292,3.3612232 H 3.3996346 L 3.2843961,2.9100879 c -0.0013,-0.005 -0.00372,-0.010153 -0.00982,-0.013953 -0.006,-0.0046 -0.012604,-0.00568 -0.021704,-0.00568 z m 0.5059123,1.3652913 h 0.054777 c 0.01862,0 0.035786,0.0068 0.048576,0.019637 0.012827,0.01279 0.019637,0.029966 0.019637,0.048576 v 0.3147095 c 0.03026,-0.0047 0.060974,-0.00827 0.091984,-0.00827 0.0739,0 0.1416184,0.016836 0.2030884,0.047026 0.062019,0.03046 0.1126884,0.07901 0.1503784,0.144694 0.03808,0.06528 0.056327,0.1471319 0.056327,0.2459798 0,0.09885 -0.018307,0.181777 -0.056327,0.2480469 -0.0377,0.06464 -0.08842,0.112187 -0.1503784,0.1426269 -0.06146,0.030189 -0.1291885,0.044958 -0.2030884,0.044958 -0.08629,0 -0.1696266,-0.014996 -0.2464966,-0.047026 -0.01031,-0.0052 -0.019572,-0.013554 -0.026872,-0.023254 -5.4e-5,-6.9e-4 -5.4e-5,-0.00137 0,-0.00207 -0.0061,-0.01104 -0.00982,-0.0233 -0.00982,-0.03514 v -1.072286 c 0,-0.01862 0.0063,-0.036303 0.01912,-0.049093 0.01279,-0.01283 0.030473,-0.01912 0.049093,-0.01912 z M 1.955795,4.3337732 h 0.054777 c 0.01948,0 0.037083,0.0063 0.049093,0.019637 0.01333,0.01202 0.01912,0.029096 0.01912,0.048576 v 0.9084717 h 0.5333007 c 0.01862,0 0.036303,0.0063 0.049093,0.01912 0.012827,0.01279 0.019637,0.030483 0.019637,0.049093 v 0.042891 c 0,0.01861 -0.0068,0.034236 -0.019637,0.047026 -0.01279,0.012827 -0.030473,0.019637 -0.049093,0.019637 H 1.955795 c -0.01862,0 -0.035786,-0.0068 -0.048576,-0.019637 -0.012827,-0.01279 -0.019637,-0.028416 -0.019637,-0.047026 v -1.019576 c 0,-0.01862 0.0068,-0.035786 0.019637,-0.048576 0.01279,-0.012827 0.029966,-0.019637 0.048576,-0.019637 z m 1.1585856,0.2966227 c 0.1138438,0 0.1991214,0.027556 0.2537313,0.082166 0.0557,0.05347 0.082166,0.1372422 0.082166,0.2480468 v 0.4532024 c 0,0.01832 -0.006,0.036193 -0.01757,0.049093 -0.01156,0.01285 -0.026769,0.020864 -0.044959,0.023254 -0.1037968,0.01258 -0.1891184,0.01757 -0.2557984,0.01757 -0.1103428,0 -0.1972725,-0.019649 -0.2599324,-0.062528 -0.06168,-0.04406 -0.094501,-0.1095629 -0.095601,-0.1912028 3.2e-4,-0.004 0.00238,-0.00762 0.00568,-0.00982 0.0032,-0.07659 0.030377,-0.141161 0.089917,-0.181901 0.06276,-0.044029 0.150079,-0.064595 0.2635498,-0.064595 h 0.1229899 v -0.033073 c 0,-0.056719 -0.010526,-0.095941 -0.031006,-0.1173055 -0.02047,-0.02226 -0.057689,-0.03514 -0.1131714,-0.03514 -0.05782,0 -0.1133184,0.0047 -0.1679484,0.013953 -6.9e-4,5.41e-5 -0.00137,5.41e-5 -0.00207,0 -0.01816,0.0024 -0.03525,-0.00132 -0.05116,-0.00982 -0.01582,-0.0092 -0.026439,-0.024042 -0.028939,-0.042891 l -0.00413,-0.042891 c -0.0023,-0.01808 8.385e-4,-0.034823 0.00982,-0.049093 0.0093,-0.01465 0.024551,-0.025756 0.042891,-0.029456 0.06357,-0.01168 0.1307981,-0.01757 0.201538,-0.01757 z M 3.95774,4.8045455 c -0.02186,0 -0.048324,0.00188 -0.075964,0.00568 v 0.5038452 c 0.02881,0.0058 0.058724,0.00982 0.091984,0.00982 0.07423,0 0.1261673,-0.020899 0.1617472,-0.062528 0.03558,-0.04163 0.054777,-0.10528 0.054777,-0.1932699 0,-0.09729 -0.021409,-0.1627713 -0.062528,-0.2010213 -5.4e-5,-6.9e-4 -5.4e-5,-0.00137 0,-0.00207 -0.04231,-0.040339 -0.098361,-0.060461 -0.1700155,-0.060461 z M 3.135568,5.1714482 c -0.05948,-6e-7 -0.1015644,0.0098 -0.1286743,0.023771 -0.02488,0.01385 -0.037207,0.03 -0.037207,0.05426 0,0.02642 0.011594,0.045071 0.039274,0.058911 0.02767,0.013877 0.072249,0.021187 0.1328085,0.021187 0.03173,0 0.07093,-0.00345 0.1167887,-0.00775 V 5.1714486 Z m 1.5311727,0.2909387 h 0.6624918 c 0.01862,0 0.035786,0.0068 0.048576,0.019637 0.012827,0.01279 0.019637,0.030473 0.019637,0.049093 v 0.040824 c 0,0.01862 -0.0068,0.036303 -0.019637,0.049093 -0.01202,0.01333 -0.029096,0.01912 -0.048576,0.01912 H 4.6667407 c -0.01862,0 -0.035786,-0.0063 -0.048576,-0.01912 -0.012827,-0.01279 -0.019637,-0.030473 -0.019637,-0.049093 v -0.040824 c 0,-0.01862 0.0068,-0.036303 0.019637,-0.049093 0.01279,-0.012827 0.029956,-0.019637 0.048576,-0.019637 z" />
  </g>
</svg>
