<svg 
  xmlns="http://www.w3.org/2000/svg" 
  xmlns:xlink="http://www.w3.org/1999/xlink" 
  version="1.1" 
  viewBox="139.23 49.77 288.47 387.72">   
  <!-- Generator: Adobe Illustrator 29.2.1, SVG Export Plug-In . SVG Version: 2.1.0 Build 116)  -->   
  
  <defs>     
    <style>       
      .st0, .st1, .st2, .st3, .st4, .st5, .st6, .st7 { fill-rule: evenodd; }        .st0, .st8 {         fill: #fff;       }        .st1, .st9 {         fill: #fff;       }        .st2, .st10 {         fill: #fff;       }        .st11 {         fill: #fff;       }        .st12 {         fill: #fff;       }        .st3 {         fill: url(#Degradado_sin_nombre_2);       }        .st4 {         fill: url(#Degradado_sin_nombre_5);       }        .st5 {         fill: #fff;       }        .st6 {         fill: #fff;       }        .st7 {         fill: #fff;       }        .st13 {         display: none;       }     </style>     <linearGradient id="Degradado_sin_nombre_5" data-name="Degradado sin nombre 5" x1="266.46" y1="142.48" x2="357.17" y2="142.48" gradientUnits="userSpaceOnUse">       <stop offset="0" stop-color="#fff"/>       <stop offset="1" stop-color="#fff"/>     </linearGradient>     <linearGradient id="Degradado_sin_nombre_2" data-name="Degradado sin nombre 2" x1="370.98" y1="169.15" x2="280.27" y2="169.15" gradientUnits="userSpaceOnUse">       <stop offset="0" stop-color="#fff"/>       <stop offset="1" stop-color="#fff"/>     </linearGradient>   </defs>   <g id="Logotipo_Color">     <g>       <polygon class="st7" points="153.07 52.27 153.07 194.01 198.43 335.74 226.77 335.74 170.08 194.01 170.08 52.27 153.07 52.27"/>       <polygon class="st7" points="181.42 52.27 181.42 194.01 257.12 333.74 285.47 333.74 198.43 194.01 198.43 52.27 181.42 52.27"/>       <polygon class="st7" points="209.76 52.27 209.76 194.01 312.81 333.74 342.16 333.74 226.77 194.01 226.77 52.27 209.76 52.27"/>       <polygon class="st7" points="238.11 52.27 238.11 194.01 366.5 333.74 394.85 333.74 255.12 194.01 255.12 52.27 238.11 52.27"/>       <polygon class="st6" points="312.99 333.55 334.4 298.66 350.72 316.41 341.9 333.3 312.99 333.55"/>       <polygon class="st6" points="257.05 333.24 285.28 296.4 298.4 314.2 285.2 333.24 257.05 333.24"/>       <polygon class="st6" points="413.86 106.64 413.86 194.01 359.6 298.5 343.91 282.97 396.85 194.01 396.85 106.64 413.86 106.64"/>       <path class="st4" d="M266.46,53.27v138.73l51.02,39.69,39.69-39.69v-85.37h-17.01s11.22,53.95.01,79.99c-2.65,6.15-10.2,16.85-28.38,16.85-11.08,0-25.32-10.25-27.93-16.85-13.05-32.94-.4-133.35-.4-133.35h-17.01Z"/>       <ellipse class="st11" cx="311.81" cy="123.14" rx="17.01" ry="59.53"/>       <path class="st8" d="M144.54,369.95c-1.87-1.87-2.8-4.16-2.8-6.87s.93-5,2.8-6.87c1.87-1.87,4.16-2.8,6.87-2.8s5,.93,6.87,2.8c1.87,1.87,2.8,4.16,2.8,6.87s-.93,5-2.8,6.87c-1.87,1.87-4.16,2.8-6.87,2.8s-5-.93-6.87-2.8ZM159.65,436.61h-16.49v-59.13h16.49v59.13Z"/>       <path class="st8" d="M176.63,369.95c-1.87-1.87-2.8-4.16-2.8-6.87s.93-5,2.8-6.87c1.87-1.87,4.16-2.8,6.87-2.8s5,.93,6.87,2.8c1.87,1.87,2.8,4.16,2.8,6.87s-.93,5-2.8,6.87c-1.87,1.87-4.16,2.8-6.87,2.8s-5-.93-6.87-2.8ZM191.74,436.61h-16.49v-59.13h16.49v59.13Z"/>       <path class="st8" d="M261.65,404.74v31.88h-16.6v-32.31c0-4.69-.71-8.13-2.14-10.33-1.43-2.2-3.74-3.3-6.92-3.3s-6.01,1.19-8.46,3.57c-2.46,2.38-3.68,5.88-3.68,10.5v31.88h-16.49v-59.13h16.49v6.7c4.54-5.13,9.74-7.69,15.61-7.69,3.74,0,7.13,1.1,10.17,3.3,3.04,2.2,5.33,4.87,6.87,8.02,2.27-3.59,5.33-6.37,9.18-8.35,3.85-1.98,7.71-2.97,11.6-2.97,6.96,0,12.57,2.07,16.82,6.21,4.25,4.14,6.38,10.13,6.38,17.97v35.94h-16.6v-32.31c0-9.09-3.34-13.63-10-13.63-3.3,0-6.16,1.19-8.57,3.57-2.42,2.38-3.63,5.88-3.63,10.5Z"/>       <path class="st8" d="M365.62,436.61h-15.5v-7.14c-4.25,5.35-9.51,8.02-15.77,8.02s-11.52-1.81-15.77-5.44c-4.25-3.63-6.38-8.46-6.38-14.51s2.2-10.57,6.59-13.57c4.4-3,10.4-4.51,18.03-4.51h12.31v-.33c0-6.3-3.33-9.45-10-9.45-2.86,0-5.88.57-9.07,1.7-3.19,1.14-5.88,2.55-8.08,4.23l-7.36-10.66c7.77-5.64,16.63-8.46,26.6-8.46,7.18,0,13.04,1.8,17.59,5.39,4.54,3.59,6.81,9.27,6.81,17.04v37.7ZM349.03,414.08v-2.86h-10.33c-6.59,0-9.89,2.05-9.89,6.16,0,2.13.79,3.76,2.36,4.89,1.57,1.14,3.83,1.7,6.76,1.7s5.51-.9,7.75-2.69c2.23-1.8,3.35-4.19,3.35-7.2Z"/>       <path class="st8" d="M425.2,418.2c0,5.83-2.14,10.5-6.43,14.01-4.29,3.52-9.73,5.28-16.32,5.28-4.4,0-8.98-.79-13.74-2.36-4.76-1.57-9.05-3.9-12.86-6.98l7.25-10.33c6.16,4.76,12.71,7.14,19.68,7.14,2.12,0,3.81-.42,5.06-1.26,1.25-.84,1.87-1.96,1.87-3.35s-.86-2.67-2.58-3.85c-1.72-1.17-4.21-2.27-7.47-3.3-3.26-1.03-5.75-1.9-7.47-2.64-1.72-.73-3.68-1.8-5.88-3.19-4.47-2.78-6.7-6.91-6.7-12.37s2.2-9.91,6.59-13.35c4.4-3.44,10.07-5.17,17.04-5.17s13.92,2.35,20.88,7.03l-6.16,10.99c-5.13-3.52-10.24-5.28-15.33-5.28s-7.64,1.39-7.64,4.18c0,1.54.81,2.75,2.42,3.63,1.61.88,4.29,1.91,8.02,3.08,3.74,1.17,6.39,2.07,7.97,2.69,1.58.62,3.46,1.59,5.66,2.91,4.1,2.49,6.16,6.65,6.16,12.48Z"/>       <path class="st8" d="M427.7,338.24H139.23V49.77h288.46v288.46ZM144.23,333.24h278.46V54.77H144.23v278.46Z"/>       <polygon class="st6" points="385.51 106.64 385.51 194.01 311.37 296.5 298.51 280.81 368.5 194.01 368.5 106.64 385.51 106.64"/>     </g>   </g>   <g id="Logotipo_Negro" class="st13">     <polygon class="st0" points="153.07 52.27 153.07 194.01 198.43 335.74 226.77 335.74 170.08 194.01 170.08 52.27 153.07 52.27"/>     <polygon class="st0" points="181.42 52.27 181.42 194.01 257.12 333.74 285.47 333.74 198.43 194.01 198.43 52.27 181.42 52.27"/>     <polygon class="st0" points="209.76 52.27 209.76 194.01 312.81 333.74 342.16 333.74 226.77 194.01 226.77 52.27 209.76 52.27"/>     <polygon class="st0" points="238.11 52.27 238.11 194.01 366.5 333.74 394.85 333.74 255.12 194.01 255.12 52.27 238.11 52.27"/>     <polygon class="st0" points="312.99 333.55 334.4 298.66 350.72 316.41 341.9 333.3 312.99 333.55"/>     <polygon class="st0" points="257.05 333.24 285.28 296.4 298.4 314.2 285.2 333.24 257.05 333.24"/>     <polygon class="st0" points="413.86 106.64 413.86 194.01 359.6 298.5 343.91 282.97 396.85 194.01 396.85 106.64 413.86 106.64"/>     <path class="st0" d="M266.46,53.27v138.73l51.02,39.69,39.69-39.69v-85.37h-17.01s11.22,53.95.01,79.99c-2.65,6.15-10.2,16.85-28.38,16.85-11.08,0-25.32-10.25-27.93-16.85-13.05-32.94-.4-133.35-.4-133.35h-17.01Z"/>     <ellipse class="st8" cx="311.81" cy="123.14" rx="17.01" ry="59.53"/>     <path class="st8" d="M144.54,369.95c-1.87-1.87-2.8-4.16-2.8-6.87s.93-5,2.8-6.87c1.87-1.87,4.16-2.8,6.87-2.8s5,.93,6.87,2.8c1.87,1.87,2.8,4.16,2.8,6.87s-.93,5-2.8,6.87c-1.87,1.87-4.16,2.8-6.87,2.8s-5-.93-6.87-2.8ZM159.65,436.61h-16.49v-59.13h16.49v59.13Z"/>     <path class="st8" d="M176.63,369.95c-1.87-1.87-2.8-4.16-2.8-6.87s.93-5,2.8-6.87c1.87-1.87,4.16-2.8,6.87-2.8s5,.93,6.87,2.8c1.87,1.87,2.8,4.16,2.8,6.87s-.93,5-2.8,6.87c-1.87,1.87-4.16,2.8-6.87,2.8s-5-.93-6.87-2.8ZM191.74,436.61h-16.49v-59.13h16.49v59.13Z"/>     <path class="st8" d="M261.65,404.74v31.88h-16.6v-32.31c0-4.69-.71-8.13-2.14-10.33-1.43-2.2-3.74-3.3-6.92-3.3s-6.01,1.19-8.46,3.57c-2.46,2.38-3.68,5.88-3.68,10.5v31.88h-16.49v-59.13h16.49v6.7c4.54-5.13,9.74-7.69,15.61-7.69,3.74,0,7.13,1.1,10.17,3.3,3.04,2.2,5.33,4.87,6.87,8.02,2.27-3.59,5.33-6.37,9.18-8.35,3.85-1.98,7.71-2.97,11.6-2.97,6.96,0,12.57,2.07,16.82,6.21,4.25,4.14,6.38,10.13,6.38,17.97v35.94h-16.6v-32.31c0-9.09-3.34-13.63-10-13.63-3.3,0-6.16,1.19-8.57,3.57-2.42,2.38-3.63,5.88-3.63,10.5Z"/>     <path class="st8" d="M365.62,436.61h-15.5v-7.14c-4.25,5.35-9.51,8.02-15.77,8.02s-11.52-1.81-15.77-5.44c-4.25-3.63-6.38-8.46-6.38-14.51s2.2-10.57,6.59-13.57c4.4-3,10.4-4.51,18.03-4.51h12.31v-.33c0-6.3-3.33-9.45-10-9.45-2.86,0-5.88.57-9.07,1.7-3.19,1.14-5.88,2.55-8.08,4.23l-7.36-10.66c7.77-5.64,16.63-8.46,26.6-8.46,7.18,0,13.04,1.8,17.59,5.39,4.54,3.59,6.81,9.27,6.81,17.04v37.7ZM349.03,414.08v-2.86h-10.33c-6.59,0-9.89,2.05-9.89,6.16,0,2.13.79,3.76,2.36,4.89,1.57,1.14,3.83,1.7,6.76,1.7s5.51-.9,7.75-2.69c2.23-1.8,3.35-4.19,3.35-7.2Z"/>     <path class="st8" d="M425.2,418.2c0,5.83-2.14,10.5-6.43,14.01-4.29,3.52-9.73,5.28-16.32,5.28-4.4,0-8.98-.79-13.74-2.36-4.76-1.57-9.05-3.9-12.86-6.98l7.25-10.33c6.16,4.76,12.71,7.14,19.68,7.14,2.12,0,3.81-.42,5.06-1.26,1.25-.84,1.87-1.96,1.87-3.35s-.86-2.67-2.58-3.85c-1.72-1.17-4.21-2.27-7.47-3.3-3.26-1.03-5.75-1.9-7.47-2.64-1.72-.73-3.68-1.8-5.88-3.19-4.47-2.78-6.7-6.91-6.7-12.37s2.2-9.91,6.59-13.35c4.4-3.44,10.07-5.17,17.04-5.17s13.92,2.35,20.88,7.03l-6.16,10.99c-5.13-3.52-10.24-5.28-15.33-5.28s-7.64,1.39-7.64,4.18c0,1.54.81,2.75,2.42,3.63,1.61.88,4.29,1.91,8.02,3.08,3.74,1.17,6.39,2.07,7.97,2.69,1.58.62,3.46,1.59,5.66,2.91,4.1,2.49,6.16,6.65,6.16,12.48Z"/>     <path class="st8" d="M427.7,338.24H139.23V49.77h288.46v288.46ZM144.23,333.24h278.46V54.77H144.23v278.46Z"/>     <polygon class="st0" points="385.51 106.64 385.51 194.01 311.37 296.5 298.51 280.81 368.5 194.01 368.5 106.64 385.51 106.64"/>   </g>   <g id="Logotipo_Dorado" class="st13">     <polygon class="st2" points="153.07 52.27 153.07 194.01 198.43 335.74 226.77 335.74 170.08 194.01 170.08 52.27 153.07 52.27"/>     <polygon class="st2" points="181.42 52.27 181.42 194.01 257.12 333.74 285.47 333.74 198.43 194.01 198.43 52.27 181.42 52.27"/>     <polygon class="st2" points="209.76 52.27 209.76 194.01 312.81 333.74 342.16 333.74 226.77 194.01 226.77 52.27 209.76 52.27"/>     <polygon class="st2" points="238.11 52.27 238.11 194.01 366.5 333.74 394.85 333.74 255.12 194.01 255.12 52.27 238.11 52.27"/>     <polygon class="st2" points="312.99 333.55 334.4 298.66 350.72 316.41 341.9 333.3 312.99 333.55"/>     <polygon class="st2" points="257.05 333.24 285.28 296.4 298.4 314.2 285.2 333.24 257.05 333.24"/>     <polygon class="st2" points="413.86 106.64 413.86 194.01 359.6 298.5 343.91 282.97 396.85 194.01 396.85 106.64 413.86 106.64"/>     <path class="st2" d="M266.46,53.27v138.73l51.02,39.69,39.69-39.69v-85.37h-17.01s11.22,53.95.01,79.99c-2.65,6.15-10.2,16.85-28.38,16.85-11.08,0-25.32-10.25-27.93-16.85-13.05-32.94-.4-133.35-.4-133.35h-17.01Z"/>     <ellipse class="st10" cx="311.81" cy="123.14" rx="17.01" ry="59.53"/>     <path class="st10" d="M144.54,369.95c-1.87-1.87-2.8-4.16-2.8-6.87s.93-5,2.8-6.87c1.87-1.87,4.16-2.8,6.87-2.8s5,.93,6.87,2.8c1.87,1.87,2.8,4.16,2.8,6.87s-.93,5-2.8,6.87c-1.87,1.87-4.16,2.8-6.87,2.8s-5-.93-6.87-2.8ZM159.65,436.61h-16.49v-59.13h16.49v59.13Z"/>     <path class="st10" d="M176.63,369.95c-1.87-1.87-2.8-4.16-2.8-6.87s.93-5,2.8-6.87c1.87-1.87,4.16-2.8,6.87-2.8s5,.93,6.87,2.8c1.87,1.87,2.8,4.16,2.8,6.87s-.93,5-2.8,6.87c-1.87,1.87-4.16,2.8-6.87,2.8s-5-.93-6.87-2.8ZM191.74,436.61h-16.49v-59.13h16.49v59.13Z"/>     <path class="st10" d="M261.65,404.74v31.88h-16.6v-32.31c0-4.69-.71-8.13-2.14-10.33-1.43-2.2-3.74-3.3-6.92-3.3s-6.01,1.19-8.46,3.57c-2.46,2.38-3.68,5.88-3.68,10.5v31.88h-16.49v-59.13h16.49v6.7c4.54-5.13,9.74-7.69,15.61-7.69,3.74,0,7.13,1.1,10.17,3.3,3.04,2.2,5.33,4.87,6.87,8.02,2.27-3.59,5.33-6.37,9.18-8.35,3.85-1.98,7.71-2.97,11.6-2.97,6.96,0,12.57,2.07,16.82,6.21,4.25,4.14,6.38,10.13,6.38,17.97v35.94h-16.6v-32.31c0-9.09-3.34-13.63-10-13.63-3.3,0-6.16,1.19-8.57,3.57-2.42,2.38-3.63,5.88-3.63,10.5Z"/>     <path class="st10" d="M365.62,436.61h-15.5v-7.14c-4.25,5.35-9.51,8.02-15.77,8.02s-11.52-1.81-15.77-5.44c-4.25-3.63-6.38-8.46-6.38-14.51s2.2-10.57,6.59-13.57c4.4-3,10.4-4.51,18.03-4.51h12.31v-.33c0-6.3-3.33-9.45-10-9.45-2.86,0-5.88.57-9.07,1.7-3.19,1.14-5.88,2.55-8.08,4.23l-7.36-10.66c7.77-5.64,16.63-8.46,26.6-8.46,7.18,0,13.04,1.8,17.59,5.39,4.54,3.59,6.81,9.27,6.81,17.04v37.7ZM349.03,414.08v-2.86h-10.33c-6.59,0-9.89,2.05-9.89,6.16,0,2.13.79,3.76,2.36,4.89,1.57,1.14,3.83,1.7,6.76,1.7s5.51-.9,7.75-2.69c2.23-1.8,3.35-4.19,3.35-7.2Z"/>     <path class="st10" d="M425.2,418.2c0,5.83-2.14,10.5-6.43,14.01-4.29,3.52-9.73,5.28-16.32,5.28-4.4,0-8.98-.79-13.74-2.36-4.76-1.57-9.05-3.9-12.86-6.98l7.25-10.33c6.16,4.76,12.71,7.14,19.68,7.14,2.12,0,3.81-.42,5.06-1.26,1.25-.84,1.87-1.96,1.87-3.35s-.86-2.67-2.58-3.85c-1.72-1.17-4.21-2.27-7.47-3.3-3.26-1.03-5.75-1.9-7.47-2.64-1.72-.73-3.68-1.8-5.88-3.19-4.47-2.78-6.7-6.91-6.7-12.37s2.2-9.91,6.59-13.35c4.4-3.44,10.07-5.17,17.04-5.17s13.92,2.35,20.88,7.03l-6.16,10.99c-5.13-3.52-10.24-5.28-15.33-5.28s-7.64,1.39-7.64,4.18c0,1.54.81,2.75,2.42,3.63,1.61.88,4.29,1.91,8.02,3.08,3.74,1.17,6.39,2.07,7.97,2.69,1.58.62,3.46,1.59,5.66,2.91,4.1,2.49,6.16,6.65,6.16,12.48Z"/>     <path class="st10" d="M427.7,338.24H139.23V49.77h288.46v288.46ZM144.23,333.24h278.46V54.77H144.23v278.46Z"/>     <polygon class="st2" points="385.51 106.64 385.51 194.01 311.37 296.5 298.51 280.81 368.5 194.01 368.5 106.64 385.51 106.64"/>   </g>   <g id="Logotipo_Grises" class="st13">     <polygon class="st0" points="166.88 78.94 166.88 220.67 212.24 362.4 240.58 362.4 183.89 220.67 183.89 78.94 166.88 78.94"/>     <polygon class="st0" points="195.23 78.94 195.23 220.67 270.93 360.4 299.28 360.4 212.24 220.67 212.24 78.94 195.23 78.94"/>     <polygon class="st0" points="223.57 78.94 223.57 220.67 326.62 360.4 355.97 360.4 240.58 220.67 240.58 78.94 223.57 78.94"/>     <polygon class="st0" points="251.92 78.94 251.92 220.67 380.31 360.4 408.66 360.4 268.93 220.67 268.93 78.94 251.92 78.94"/>     <polygon class="st5" points="326.8 360.22 348.21 325.33 364.53 343.08 355.71 359.97 326.8 360.22"/>     <polygon class="st5" points="270.86 359.9 299.09 323.07 312.21 340.86 299.01 359.9 270.86 359.9"/>     <polygon class="st5" points="427.67 133.3 427.67 220.67 373.41 325.16 357.72 309.64 410.66 220.67 410.66 133.3 427.67 133.3"/>     <path class="st3" d="M280.27,79.94v138.73l51.02,39.69,39.69-39.69v-85.37h-17.01s11.22,53.95.01,79.99c-2.65,6.15-10.2,16.85-28.38,16.85-11.08,0-25.32-10.25-27.93-16.85-13.05-32.94-.4-133.35-.4-133.35h-17.01Z"/>     <ellipse class="st12" cx="325.62" cy="149.8" rx="17.01" ry="59.53"/>     <g>       <path class="st8" d="M158.35,396.62c-1.87-1.87-2.8-4.16-2.8-6.87s.93-5,2.8-6.87c1.87-1.87,4.16-2.8,6.87-2.8s5,.93,6.87,2.8c1.87,1.87,2.8,4.16,2.8,6.87s-.93,5-2.8,6.87c-1.87,1.87-4.16,2.8-6.87,2.8s-5-.93-6.87-2.8ZM173.46,463.28h-16.49v-59.13h16.49v59.13Z"/>       <path class="st8" d="M190.44,396.62c-1.87-1.87-2.8-4.16-2.8-6.87s.93-5,2.8-6.87c1.87-1.87,4.16-2.8,6.87-2.8s5,.93,6.87,2.8c1.87,1.87,2.8,4.16,2.8,6.87s-.93,5-2.8,6.87c-1.87,1.87-4.16,2.8-6.87,2.8s-5-.93-6.87-2.8ZM205.55,463.28h-16.49v-59.13h16.49v59.13Z"/>       <path class="st8" d="M275.46,431.4v31.88h-16.6v-32.31c0-4.69-.71-8.13-2.14-10.33-1.43-2.2-3.74-3.3-6.92-3.3s-6.01,1.19-8.46,3.57c-2.46,2.38-3.68,5.88-3.68,10.5v31.88h-16.49v-59.13h16.49v6.7c4.54-5.13,9.74-7.69,15.61-7.69,3.74,0,7.13,1.1,10.17,3.3,3.04,2.2,5.33,4.87,6.87,8.02,2.27-3.59,5.33-6.37,9.18-8.35,3.85-1.98,7.71-2.97,11.6-2.97,6.96,0,12.57,2.07,16.82,6.21,4.25,4.14,6.38,10.13,6.38,17.97v35.94h-16.6v-32.31c0-9.09-3.34-13.63-10-13.63-3.3,0-6.16,1.19-8.57,3.57-2.42,2.38-3.63,5.88-3.63,10.5Z"/>       <path class="st8" d="M379.43,463.28h-15.5v-7.14c-4.25,5.35-9.51,8.02-15.77,8.02s-11.52-1.81-15.77-5.44c-4.25-3.63-6.38-8.46-6.38-14.51s2.2-10.57,6.59-13.57c4.4-3,10.4-4.51,18.03-4.51h12.31v-.33c0-6.3-3.33-9.45-10-9.45-2.86,0-5.88.57-9.07,1.7-3.19,1.14-5.88,2.55-8.08,4.23l-7.36-10.66c7.77-5.64,16.63-8.46,26.6-8.46,7.18,0,13.04,1.8,17.59,5.39,4.54,3.59,6.81,9.27,6.81,17.04v37.7ZM362.84,440.75v-2.86h-10.33c-6.59,0-9.89,2.05-9.89,6.16,0,2.13.79,3.76,2.36,4.89,1.57,1.14,3.83,1.7,6.76,1.7s5.51-.9,7.75-2.69c2.23-1.8,3.35-4.19,3.35-7.2Z"/>       <path class="st8" d="M439.01,444.87c0,5.83-2.14,10.5-6.43,14.01-4.29,3.52-9.73,5.28-16.32,5.28-4.4,0-8.98-.79-13.74-2.36-4.76-1.57-9.05-3.9-12.86-6.98l7.25-10.33c6.16,4.76,12.71,7.14,19.68,7.14,2.12,0,3.81-.42,5.06-1.26,1.25-.84,1.87-1.96,1.87-3.35s-.86-2.67-2.58-3.85c-1.72-1.17-4.21-2.27-7.47-3.3-3.26-1.03-5.75-1.9-7.47-2.64-1.72-.73-3.68-1.8-5.88-3.19-4.47-2.78-6.7-6.91-6.7-12.37s2.2-9.91,6.59-13.35c4.4-3.44,10.07-5.17,17.04-5.17s13.92,2.35,20.88,7.03l-6.16,10.99c-5.13-3.52-10.24-5.28-15.33-5.28s-7.64,1.39-7.64,4.18c0,1.54.81,2.75,2.42,3.63,1.61.88,4.29,1.91,8.02,3.08,3.74,1.17,6.39,2.07,7.97,2.69,1.58.62,3.46,1.59,5.66,2.91,4.1,2.49,6.16,6.65,6.16,12.48Z"/>     </g>     <path class="st8" d="M441.51,364.9H153.04V76.44h288.46v288.46ZM158.04,359.9h278.46V81.44H158.04v278.46Z"/>     <polygon class="st5" points="399.32 133.3 399.32 220.67 325.18 323.16 312.32 307.47 382.31 220.67 382.31 133.3 399.32 133.3"/>   </g>   <g id="Logotipo_Blanco" class="st13">     <polygon class="st1" points="153.07 52.27 153.07 194.01 198.43 335.74 226.77 335.74 170.08 194.01 170.08 52.27 153.07 52.27"/>     <polygon class="st1" points="181.42 52.27 181.42 194.01 257.12 333.74 285.47 333.74 198.43 194.01 198.43 52.27 181.42 52.27"/>     <polygon class="st1" points="209.76 52.27 209.76 194.01 312.81 333.74 342.16 333.74 226.77 194.01 226.77 52.27 209.76 52.27"/>     <polygon class="st1" points="238.11 52.27 238.11 194.01 366.5 333.74 394.85 333.74 255.12 194.01 255.12 52.27 238.11 52.27"/>     <polygon class="st1" points="312.99 333.55 334.4 298.66 350.72 316.41 341.9 333.3 312.99 333.55"/>     <polygon class="st1" points="257.05 333.24 285.28 296.4 298.4 314.2 285.2 333.24 257.05 333.24"/>     <polygon class="st1" points="413.86 106.64 413.86 194.01 359.6 298.5 343.91 282.97 396.85 194.01 396.85 106.64 413.86 106.64"/>     <path class="st1" d="M266.46,53.27v138.73l51.02,39.69,39.69-39.69v-85.37h-17.01s11.22,53.95.01,79.99c-2.65,6.15-10.2,16.85-28.38,16.85-11.08,0-25.32-10.25-27.93-16.85-13.05-32.94-.4-133.35-.4-133.35h-17.01Z"/>     <ellipse class="st9" cx="311.81" cy="123.14" rx="17.01" ry="59.53"/>     <path class="st9" d="M144.54,370.95c-1.87-1.87-2.8-4.16-2.8-6.87s.93-5,2.8-6.87c1.87-1.87,4.16-2.8,6.87-2.8s5,.93,6.87,2.8c1.87,1.87,2.8,4.16,2.8,6.87s-.93,5-2.8,6.87c-1.87,1.87-4.16,2.8-6.87,2.8s-5-.93-6.87-2.8ZM159.65,437.61h-16.49v-59.13h16.49v59.13Z"/>     <path class="st9" d="M176.63,370.95c-1.87-1.87-2.8-4.16-2.8-6.87s.93-5,2.8-6.87c1.87-1.87,4.16-2.8,6.87-2.8s5,.93,6.87,2.8c1.87,1.87,2.8,4.16,2.8,6.87s-.93,5-2.8,6.87c-1.87,1.87-4.16,2.8-6.87,2.8s-5-.93-6.87-2.8ZM191.74,437.61h-16.49v-59.13h16.49v59.13Z"/>     <path class="st9" d="M261.65,405.74v31.88h-16.6v-32.31c0-4.69-.71-8.13-2.14-10.33-1.43-2.2-3.74-3.3-6.92-3.3s-6.01,1.19-8.46,3.57c-2.46,2.38-3.68,5.88-3.68,10.5v31.88h-16.49v-59.13h16.49v6.7c4.54-5.13,9.74-7.69,15.61-7.69,3.74,0,7.13,1.1,10.17,3.3,3.04,2.2,5.33,4.87,6.87,8.02,2.27-3.59,5.33-6.37,9.18-8.35,3.85-1.98,7.71-2.97,11.6-2.97,6.96,0,12.57,2.07,16.82,6.21,4.25,4.14,6.38,10.13,6.38,17.97v35.94h-16.6v-32.31c0-9.09-3.34-13.63-10-13.63-3.3,0-6.16,1.19-8.57,3.57-2.42,2.38-3.63,5.88-3.63,10.5Z"/>     <path class="st9" d="M365.62,437.61h-15.5v-7.14c-4.25,5.35-9.51,8.02-15.77,8.02s-11.52-1.81-15.77-5.44c-4.25-3.63-6.38-8.46-6.38-14.51s2.2-10.57,6.59-13.57c4.4-3,10.4-4.51,18.03-4.51h12.31v-.33c0-6.3-3.33-9.45-10-9.45-2.86,0-5.88.57-9.07,1.7-3.19,1.14-5.88,2.55-8.08,4.23l-7.36-10.66c7.77-5.64,16.63-8.46,26.6-8.46,7.18,0,13.04,1.8,17.59,5.39,4.54,3.59,6.81,9.27,6.81,17.04v37.7ZM349.03,415.08v-2.86h-10.33c-6.59,0-9.89,2.05-9.89,6.16,0,2.13.79,3.76,2.36,4.89,1.57,1.14,3.83,1.7,6.76,1.7s5.51-.9,7.75-2.69c2.23-1.8,3.35-4.19,3.35-7.2Z"/>     <path class="st9" d="M425.2,419.2c0,5.83-2.14,10.5-6.43,14.01-4.29,3.52-9.73,5.28-16.32,5.28-4.4,0-8.98-.79-13.74-2.36-4.76-1.57-9.05-3.9-12.86-6.98l7.25-10.33c6.16,4.76,12.71,7.14,19.68,7.14,2.12,0,3.81-.42,5.06-1.26,1.25-.84,1.87-1.96,1.87-3.35s-.86-2.67-2.58-3.85c-1.72-1.17-4.21-2.27-7.47-3.3-3.26-1.03-5.75-1.9-7.47-2.64-1.72-.73-3.68-1.8-5.88-3.19-4.47-2.78-6.7-6.91-6.7-12.37s2.2-9.91,6.59-13.35c4.4-3.44,10.07-5.17,17.04-5.17s13.92,2.35,20.88,7.03l-6.16,10.99c-5.13-3.52-10.24-5.28-15.33-5.28s-7.64,1.39-7.64,4.18c0,1.54.81,2.75,2.42,3.63,1.61.88,4.29,1.91,8.02,3.08,3.74,1.17,6.39,2.07,7.97,2.69,1.58.62,3.46,1.59,5.66,2.91,4.1,2.49,6.16,6.65,6.16,12.48Z"/>     <path class="st9" d="M427.7,338.24H139.23V49.77h288.46v288.46ZM144.23,333.24h278.46V54.77H144.23v278.46Z"/>     <polygon class="st1" points="385.51 106.64 385.51 194.01 311.37 296.5 298.51 280.81 368.5 194.01 368.5 106.64 385.51 106.64"/>   </g> </svg>