<?xml version="1.0" encoding="UTF-8" standalone="no"?>
<!-- Created with Inkscape (http://www.inkscape.org/) -->

<svg
   width="128"
   height="32"
   viewBox="0 0 33.866666 8.4666667"
   version="1.1"
   id="svg1"
   xml:space="preserve"
   inkscape:version="1.4 (e7c3feb100, 2024-10-09)"
   sodipodi:docname="LOGO_FULL_V4.svg"
   inkscape:export-filename="../PNG/Isologo.png"
   inkscape:export-xdpi="960"
   inkscape:export-ydpi="960"
   xmlns:inkscape="http://www.inkscape.org/namespaces/inkscape"
   xmlns:sodipodi="http://sodipodi.sourceforge.net/DTD/sodipodi-0.dtd"
   xmlns="http://www.w3.org/2000/svg"
   xmlns:svg="http://www.w3.org/2000/svg"><sodipodi:namedview
     id="namedview1"
     pagecolor="#ffffff"
     bordercolor="#000000"
     borderopacity="0.25"
     inkscape:showpageshadow="2"
     inkscape:pageopacity="0.0"
     inkscape:pagecheckerboard="true"
     inkscape:deskcolor="#d1d1d1"
     inkscape:document-units="px"
     showgrid="false"
     inkscape:zoom="4.3380728"
     inkscape:cx="102.46485"
     inkscape:cy="16.366715"
     inkscape:window-width="1920"
     inkscape:window-height="1008"
     inkscape:window-x="0"
     inkscape:window-y="0"
     inkscape:window-maximized="1"
     inkscape:current-layer="layer1"
     showborder="false"><inkscape:grid
       id="grid4"
       units="px"
       originx="0"
       originy="0"
       spacingx="0.26458333"
       spacingy="0.26458333"
       empcolor="#0099e5"
       empopacity="0.30196078"
       color="#0099e5"
       opacity="0.14901961"
       empspacing="5"
       dotted="false"
       gridanglex="30"
       gridanglez="30"
       visible="false" /></sodipodi:namedview><defs
     id="defs1"><inkscape:path-effect
       effect="fillet_chamfer"
       id="path-effect59"
       is_visible="true"
       lpeversion="1"
       nodesatellites_param="F,0,0,1,0,0,0,1 @ F,0,0,1,0,0,0,1 @ F,0,0,1,0,0,0,1 @ F,0,0,1,0,0,0,1 @ F,0,0,1,0,0,0,1 @ F,0,0,1,0,0,0,1 @ F,0,0,1,0,0,0,1 @ F,0,0,1,0,0,0,1 @ F,0,0,1,0,0,0,1 @ F,0,0,1,0,0,0,1 @ F,0,0,1,0,0,0,1"
       radius="0"
       unit="px"
       method="auto"
       mode="F"
       chamfer_steps="1"
       flexible="false"
       use_knot_distance="true"
       apply_no_radius="true"
       apply_with_radius="true"
       only_selected="false"
       hide_knots="false" /><inkscape:path-effect
       effect="fillet_chamfer"
       id="path-effect47"
       is_visible="true"
       lpeversion="1"
       nodesatellites_param="F,0,0,1,0,0,0,1 @ F,0,0,1,0,0,0,1 @ F,0,0,1,0,0,0,1 @ F,0,0,1,0,0,0,1 @ F,0,0,1,0,0,0,1 @ F,0,0,1,0,0,0,1 @ F,0,0,1,0,0,0,1 @ F,0,0,1,0,0,0,1 @ F,0,0,1,0,0,0,1 @ F,0,0,1,0,0,0,1 @ F,0,0,1,0,0,0,1"
       radius="0"
       unit="px"
       method="auto"
       mode="F"
       chamfer_steps="1"
       flexible="false"
       use_knot_distance="true"
       apply_no_radius="true"
       apply_with_radius="true"
       only_selected="false"
       hide_knots="false" /><inkscape:path-effect
       effect="fillet_chamfer"
       id="path-effect37"
       is_visible="true"
       lpeversion="1"
       nodesatellites_param="F,0,0,1,0,0,0,1 @ F,0,0,1,0,0,0,1 @ F,0,0,1,0,0,0,1 @ F,0,0,1,0,0,0,1 @ F,0,0,1,0,0,0,1 @ F,0,0,1,0,0,0,1 @ F,0,0,1,0,0,0,1 @ F,0,0,1,0,0,0,1 @ F,0,0,1,0,0,0,1 @ F,0,0,1,0,0,0,1 @ F,0,0,1,0,0,0,1"
       radius="0"
       unit="px"
       method="auto"
       mode="F"
       chamfer_steps="1"
       flexible="false"
       use_knot_distance="true"
       apply_no_radius="true"
       apply_with_radius="true"
       only_selected="false"
       hide_knots="false" /><inkscape:path-effect
       effect="fillet_chamfer"
       id="path-effect30"
       is_visible="true"
       lpeversion="1"
       nodesatellites_param="F,0,0,1,0,0,0,1 @ F,0,0,1,0,0,0,1 @ F,0,0,1,0,0,0,1 @ F,0,0,1,0,0,0,1 @ F,0,0,1,0,0,0,1 @ F,0,0,1,0,0,0,1 @ F,0,0,1,0,0,0,1 @ F,0,0,1,0,0,0,1 @ F,0,0,1,0,0,0,1 @ F,0,0,1,0,0,0,1 @ F,0,0,1,0,0,0,1"
       radius="0"
       unit="px"
       method="auto"
       mode="F"
       chamfer_steps="1"
       flexible="false"
       use_knot_distance="true"
       apply_no_radius="true"
       apply_with_radius="true"
       only_selected="false"
       hide_knots="false" /><inkscape:path-effect
       effect="fillet_chamfer"
       id="path-effect25"
       is_visible="true"
       lpeversion="1"
       nodesatellites_param="F,0,0,1,0,0,0,1 @ F,0,0,1,0,0,0,1 @ F,0,0,1,0,0,0,1 @ F,0,0,1,0,0,0,1 @ F,0,0,1,0,0,0,1 @ F,0,0,1,0,0,0,1 @ F,0,0,1,0,0,0,1 @ F,0,0,1,0,0,0,1 @ F,0,0,1,0,0,0,1 @ F,0,0,1,0,0,0,1 @ F,0,0,1,0,0,0,1"
       radius="0"
       unit="px"
       method="auto"
       mode="F"
       chamfer_steps="1"
       flexible="false"
       use_knot_distance="true"
       apply_no_radius="true"
       apply_with_radius="true"
       only_selected="false"
       hide_knots="false" /><inkscape:path-effect
       effect="fillet_chamfer"
       id="path-effect23"
       is_visible="true"
       lpeversion="1"
       nodesatellites_param="F,0,0,1,0,0,0,1 @ F,0,0,1,0,0,0,1 @ F,0,0,1,0,0,0,1 @ F,0,0,1,0,0,0,1 @ F,0,0,1,0,0,0,1 @ F,0,0,1,0,0,0,1 @ F,0,0,1,0,0,0,1 @ F,0,0,1,0,0,0,1 @ F,0,0,1,0,0,0,1 @ F,0,0,1,0,0,0,1 @ F,0,0,1,0,0,0,1"
       radius="0"
       unit="px"
       method="auto"
       mode="F"
       chamfer_steps="1"
       flexible="false"
       use_knot_distance="true"
       apply_no_radius="true"
       apply_with_radius="true"
       only_selected="false"
       hide_knots="false" /><inkscape:path-effect
       effect="fillet_chamfer"
       id="path-effect7"
       is_visible="true"
       lpeversion="1"
       nodesatellites_param="F,0,0,1,0,0,0,1 @ F,0,0,1,0,0,0,1 @ F,0,0,1,0,0,0,1 @ F,0,0,1,0,0,0,1 @ F,0,0,1,0,0,0,1 @ F,0,0,1,0,0,0,1 @ F,0,0,1,0,0,0,1 @ F,0,0,1,0,0,0,1 @ F,0,0,1,0,0,0,1 @ F,0,0,1,0,0,0,1 @ F,0,0,1,0,0,0,1"
       radius="0"
       unit="px"
       method="auto"
       mode="F"
       chamfer_steps="1"
       flexible="false"
       use_knot_distance="true"
       apply_no_radius="true"
       apply_with_radius="true"
       only_selected="false"
       hide_knots="false" /><inkscape:path-effect
       effect="fillet_chamfer"
       id="path-effect58"
       is_visible="true"
       lpeversion="1"
       nodesatellites_param="F,0,0,1,0,0,0,1 @ F,0,0,1,0,0,0,1 @ F,0,0,1,0,0,0,1 @ F,0,0,1,0,0,0,1 @ F,0,0,1,0,0,0,1 @ F,0,0,1,0,0,0,1 @ F,0,0,1,0,0,0,1 @ F,0,0,1,0,0,0,1 @ F,0,0,1,0,0,0,1 @ F,0,0,1,0,0,0,1 @ F,0,0,1,0,0,0,1"
       radius="0"
       unit="px"
       method="auto"
       mode="F"
       chamfer_steps="1"
       flexible="false"
       use_knot_distance="true"
       apply_no_radius="true"
       apply_with_radius="true"
       only_selected="false"
       hide_knots="false" /><inkscape:path-effect
       effect="fillet_chamfer"
       id="path-effect49"
       is_visible="true"
       lpeversion="1"
       nodesatellites_param="F,0,0,1,0,0,0,1 @ F,0,0,1,0,0,0,1 @ F,0,0,1,0,0,0,1 @ F,0,0,1,0,0,0,1 @ F,0,0,1,0,0,0,1 @ F,0,0,1,0,0,0,1 @ F,0,0,1,0,0,0,1 @ F,0,0,1,0,0,0,1 @ F,0,0,1,0,0,0,1 @ F,0,0,1,0,0,0,1 @ F,0,0,1,0,0,0,1"
       radius="0"
       unit="px"
       method="auto"
       mode="F"
       chamfer_steps="1"
       flexible="false"
       use_knot_distance="true"
       apply_no_radius="true"
       apply_with_radius="true"
       only_selected="false"
       hide_knots="false" /><inkscape:path-effect
       effect="fillet_chamfer"
       id="path-effect44"
       is_visible="true"
       lpeversion="1"
       nodesatellites_param="F,0,0,1,0,0,0,1 @ F,0,0,1,0,0,0,1 @ F,0,0,1,0,0,0,1 @ F,0,0,1,0,0,0,1 @ F,0,0,1,0,0,0,1 @ F,0,0,1,0,0,0,1 @ F,0,0,1,0,0,0,1 @ F,0,0,1,0,0,0,1 @ F,0,0,1,0,0,0,1 @ F,0,0,1,0,0,0,1 @ F,0,0,1,0,0,0,1"
       radius="0"
       unit="px"
       method="auto"
       mode="F"
       chamfer_steps="1"
       flexible="false"
       use_knot_distance="true"
       apply_no_radius="true"
       apply_with_radius="true"
       only_selected="false"
       hide_knots="false" /><inkscape:path-effect
       effect="fillet_chamfer"
       id="path-effect38"
       is_visible="true"
       lpeversion="1"
       nodesatellites_param="F,0,0,1,0,0,0,1 @ F,0,0,1,0,0,0,1 @ F,0,0,1,0,0,0,1 @ F,0,0,1,0,0,0,1 @ F,0,0,1,0,0,0,1 @ F,0,0,1,0,0,0,1 @ F,0,0,1,0,0,0,1 @ F,0,0,1,0,0,0,1 @ F,0,0,1,0,0,0,1 @ F,0,0,1,0,0,0,1 @ F,0,0,1,0,0,0,1"
       radius="0"
       unit="px"
       method="auto"
       mode="F"
       chamfer_steps="1"
       flexible="false"
       use_knot_distance="true"
       apply_no_radius="true"
       apply_with_radius="true"
       only_selected="false"
       hide_knots="false" /><inkscape:path-effect
       effect="fillet_chamfer"
       id="path-effect33"
       is_visible="true"
       lpeversion="1"
       nodesatellites_param="F,0,0,1,0,0,0,1 @ F,0,0,1,0,0,0,1 @ F,0,0,1,0,0,0,1 @ F,0,0,1,0,0,0,1 @ F,0,0,1,0,0,0,1 @ F,0,0,1,0,0,0,1 @ F,0,0,1,0,0,0,1 @ F,0,0,1,0,0,0,1 @ F,0,0,1,0,0,0,1 @ F,0,0,1,0,0,0,1 @ F,0,0,1,0,0,0,1"
       radius="0"
       unit="px"
       method="auto"
       mode="F"
       chamfer_steps="1"
       flexible="false"
       use_knot_distance="true"
       apply_no_radius="true"
       apply_with_radius="true"
       only_selected="false"
       hide_knots="false" /><inkscape:path-effect
       effect="fillet_chamfer"
       id="path-effect17"
       is_visible="true"
       lpeversion="1"
       nodesatellites_param="F,0,0,1,0,0,0,1 @ F,0,0,1,0,0,0,1 @ F,0,0,1,0,0,0,1 @ F,0,0,1,0,0,0,1 @ F,0,0,1,0,0,0,1 @ F,0,0,1,0,0,0,1 @ F,0,0,1,0,0,0,1 @ F,0,0,1,0,0,0,1 @ F,0,0,1,0,0,0,1 @ F,0,0,1,0,0,0,1 @ F,0,0,1,0,0,0,1"
       radius="0"
       unit="px"
       method="auto"
       mode="F"
       chamfer_steps="1"
       flexible="false"
       use_knot_distance="true"
       apply_no_radius="true"
       apply_with_radius="true"
       only_selected="false"
       hide_knots="false" /><inkscape:path-effect
       effect="fillet_chamfer"
       id="path-effect16"
       is_visible="true"
       lpeversion="1"
       nodesatellites_param="F,0,0,1,0,0,0,1 @ F,0,0,1,0,0,0,1 @ F,0,0,1,0,0,0,1 @ F,0,0,1,0,0,0,1 @ F,0,0,1,0,0,0,1 @ F,0,0,1,0,0,0,1 @ F,0,0,1,0,0,0,1 @ F,0,0,1,0,0,0,1 @ F,0,0,1,0,0,0,1 @ F,0,0,1,0,0,0,1 @ F,0,0,1,0,0,0,1"
       radius="0"
       unit="px"
       method="auto"
       mode="F"
       chamfer_steps="1"
       flexible="false"
       use_knot_distance="true"
       apply_no_radius="true"
       apply_with_radius="true"
       only_selected="false"
       hide_knots="false" /></defs><g
     inkscape:label="Capa 1"
     inkscape:groupmode="layer"
     id="layer1"><text
       xml:space="preserve"
       style="font-style:normal;font-variant:normal;font-weight:normal;font-stretch:normal;font-size:3.88056px;line-height:0.82;font-family:'Bitstream Vera Serif';-inkscape-font-specification:'Bitstream Vera Serif, Normal';font-variant-ligatures:normal;font-variant-caps:normal;font-variant-numeric:normal;font-variant-east-asian:normal;letter-spacing:-0.132292px;word-spacing:5.29167px;opacity:1;fill:#ffffff;fill-opacity:1;stroke:none;stroke-width:0.0529167;stroke-linecap:round;stroke-linejoin:round;stroke-dasharray:none;stroke-opacity:1;paint-order:stroke fill markers"
       x="9.775382"
       y="-6.1063452"
       id="text49"><tspan
         sodipodi:role="line"
         id="tspan49"
         style="stroke-width:0.0529167"
         x="9.775382"
         y="-6.1063452" /></text><text
       xml:space="preserve"
       style="font-style:normal;font-variant:normal;font-weight:normal;font-stretch:normal;font-size:2.82223px;line-height:1;font-family:'Mononoki Nerd Font Propo';-inkscape-font-specification:'Mononoki Nerd Font Propo, Normal';font-variant-ligatures:normal;font-variant-caps:normal;font-variant-numeric:normal;font-variant-east-asian:normal;letter-spacing:0px;word-spacing:0px;fill:#5a2673;fill-opacity:1;stroke:none;stroke-width:0.0264583;stroke-linecap:round;stroke-linejoin:round;stroke-dasharray:none;stroke-opacity:1;paint-order:stroke fill markers"
       x="-21.458994"
       y="17.900009"
       id="text22"><tspan
         sodipodi:role="line"
         id="tspan22"
         style="font-style:normal;font-variant:normal;font-weight:normal;font-stretch:normal;font-size:2.82223px;line-height:1;font-family:'Mononoki Nerd Font Propo';-inkscape-font-specification:'Mononoki Nerd Font Propo, Normal';font-variant-ligatures:normal;font-variant-caps:normal;font-variant-numeric:normal;font-variant-east-asian:normal;letter-spacing:0px;fill:#5a2673;fill-opacity:1;stroke-width:0.0264583"
         x="-21.458994"
         y="17.900009">Monoki</tspan><tspan
         sodipodi:role="line"
         style="font-style:normal;font-variant:normal;font-weight:normal;font-stretch:normal;font-size:2.82223px;line-height:1;font-family:'Mononoki Nerd Font Propo';-inkscape-font-specification:'Mononoki Nerd Font Propo, Normal';font-variant-ligatures:normal;font-variant-caps:normal;font-variant-numeric:normal;font-variant-east-asian:normal;letter-spacing:0px;fill:#5a2673;fill-opacity:1;stroke-width:0.0264583"
         x="-21.458994"
         y="20.722239"
         id="tspan26">Nerd</tspan><tspan
         sodipodi:role="line"
         style="font-style:normal;font-variant:normal;font-weight:normal;font-stretch:normal;font-size:2.82223px;line-height:1;font-family:'Mononoki Nerd Font Propo';-inkscape-font-specification:'Mononoki Nerd Font Propo, Normal';font-variant-ligatures:normal;font-variant-caps:normal;font-variant-numeric:normal;font-variant-east-asian:normal;letter-spacing:0px;fill:#5a2673;fill-opacity:1;stroke-width:0.0264583"
         x="-21.458994"
         y="23.54447"
         id="tspan27">Font</tspan></text><text
       xml:space="preserve"
       style="font-style:normal;font-variant:normal;font-weight:normal;font-stretch:normal;font-size:2.11667px;line-height:1;font-family:Raleway;-inkscape-font-specification:'Raleway, @wght=600';font-variant-ligatures:normal;font-variant-caps:normal;font-variant-numeric:normal;font-variant-east-asian:normal;font-variation-settings:'wght' 600;letter-spacing:0px;word-spacing:0px;opacity:1;fill:#000000;fill-opacity:1;stroke:none;stroke-width:0.0529167;stroke-linecap:round;stroke-linejoin:round;stroke-dasharray:none;stroke-opacity:1;paint-order:stroke fill markers"
       x="8.9175377"
       y="2.8435535"
       id="text25"><tspan
         sodipodi:role="line"
         style="font-style:normal;font-variant:normal;font-weight:normal;font-stretch:normal;font-size:2.11667px;line-height:1;font-family:Montserrat;-inkscape-font-specification:'Montserrat, @wght=500';font-variant-ligatures:normal;font-variant-caps:normal;font-variant-numeric:normal;font-variant-east-asian:normal;font-variation-settings:'wght' 500;letter-spacing:0px;word-spacing:0px;fill:#000000;stroke-width:0.0529167"
         x="8.9175377"
         y="2.8435535"
         id="tspan25">LABORATORIO DE</tspan><tspan
         sodipodi:role="line"
         style="font-style:normal;font-variant:normal;font-weight:normal;font-stretch:normal;font-size:2.11667px;line-height:1;font-family:Montserrat;-inkscape-font-specification:'Montserrat, @wght=500';font-variant-ligatures:normal;font-variant-caps:normal;font-variant-numeric:normal;font-variant-east-asian:normal;font-variation-settings:'wght' 500;letter-spacing:0px;word-spacing:0px;fill:#000000;stroke-width:0.0529167"
         x="8.9175377"
         y="4.9741678"
         id="tspan1">LENGUAJE Y ANÁLISIS</tspan><tspan
         sodipodi:role="line"
         style="font-style:normal;font-variant:normal;font-weight:normal;font-stretch:normal;font-size:2.11667px;line-height:1;font-family:Montserrat;-inkscape-font-specification:'Montserrat, @wght=500';font-variant-ligatures:normal;font-variant-caps:normal;font-variant-numeric:normal;font-variant-east-asian:normal;font-variation-settings:'wght' 500;letter-spacing:0px;word-spacing:0px;fill:#000000;stroke-width:0.0529167"
         x="8.9175377"
         y="7.1047821"
         id="tspan2">DE TEXTOS</tspan></text><g
       id="g38"
       transform="translate(-0.69182435,-0.57722242)" /><path
       id="path1"
       style="font-weight:bold;font-size:2.82222px;font-family:'Mononoki Nerd Font Propo';-inkscape-font-specification:'Mononoki Nerd Font Propo, Bold';letter-spacing:0px;word-spacing:0px;fill:#5a2673;fill-opacity:1;stroke:none;stroke-width:0;stroke-linecap:round;stroke-linejoin:round;stroke-dasharray:none;paint-order:stroke fill markers"
       d="m 1.6028449,1.7137784 c -0.1379788,7.1e-5 -0.2633742,0.080821 -0.3198771,0.2067058 0,0 -0.1233665,0.2604828 -0.1855184,0.4898928 -0.10132188,0.374054 -0.19740388,0.899392 -0.19740388,2.094962 0,0.663772 0.21233248,1.334274 0.69711498,1.841232 0.4847825,0.506955 1.2299855,0.827856 2.2024495,0.827856 0.9607717,0 1.7054039,-0.26374 2.1983154,-0.752409 C 6.1294083,6.291667 6.2408813,6.147239 6.3338223,5.991553 6.7562438,5.988953 7.0644883,5.890823 7.2593471,5.695964 7.4608831,5.502494 7.5616541,5.195831 7.5616541,4.77664 V 2.3587 c 0,-0.06046 -0.01902,-0.111105 -0.05529,-0.151412 -0.03628,-0.04031 -0.08423,-0.0648 -0.144694,-0.07286 C 6.9626319,2.086048 6.6358191,2.062081 6.3818853,2.062081 6.3491553,1.984301 6.3193573,1.9204876 6.3193573,1.9204876 6.2628573,1.7946087 6.1379758,1.7138518 5.9999969,1.7137818 Z M 6.6624844,2.671343 c 0.1627108,0 0.2935221,0.148388 0.2935221,0.332796 v 1.934249 c 0,0.184408 -0.1308113,0.332796 -0.2935221,0.332796 -0.1627099,0 -0.2935222,-0.148388 -0.2935222,-0.332796 V 3.004139 c 0,-0.184408 0.1308123,-0.332796 0.2935222,-0.332796 z m -3.409611,0.04134 c 0.05455,0 0.1015599,0.01392 0.1405599,0.04289 0.04005,0.02892 0.066408,0.06917 0.078548,0.118855 l 0.2320271,0.928109 c 0.0016,0.006 0.00207,0.01329 0.00207,0.02119 0,0.01664 -0.0059,0.03123 -0.01757,0.04289 -0.011279,0.01133 -0.026928,0.01602 -0.044958,0.01602 h -0.056327 c -0.01788,0 -0.034436,-0.0041 -0.047026,-0.01395 -0.012589,-0.0099 -0.020621,-0.02522 -0.025321,-0.04289 L 3.4425264,3.538476 H 3.0616706 l -0.072347,0.287321 c -0.0037,0.01708 -0.012431,0.03258 -0.025322,0.04289 -0.01297,0.01037 -0.028995,0.01395 -0.047025,0.01395 l -0.054777,0.0021 c -0.01893,0 -0.036266,-0.0066 -0.048576,-0.01757 -0.010633,-0.01195 -0.015503,-0.02781 -0.015503,-0.04496 0,-0.0063 5.37e-4,-0.01247 0.00207,-0.01757 L 3.0306647,2.872908 c 0.01325,-0.04859 0.040168,-0.08847 0.080098,-0.117306 0.03993,-0.02884 0.08856,-0.04289 0.1421107,-0.04289 z m -1.2970785,0.0155 h 0.054777 c 0.01948,0 0.037083,0.0063 0.049093,0.01964 0.01333,0.01201 0.01912,0.0291 0.01912,0.04858 v 0.908471 h 0.5333007 c 0.01862,0 0.036303,0.0068 0.049093,0.01964 0.012827,0.01279 0.019637,0.02997 0.019637,0.04858 v 0.04289 c 0,0.01861 -0.0068,0.03424 -0.019637,0.04703 -0.01279,0.01278 -0.030473,0.0217 -0.049093,0.0217 H 1.9557949 c -0.01862,0 -0.035786,-0.0089 -0.048576,-0.0217 -0.012827,-0.01279 -0.019637,-0.02842 -0.019637,-0.04703 V 2.796408 c 0,-0.01862 0.0068,-0.03579 0.019637,-0.04858 0.01279,-0.01283 0.029966,-0.01964 0.048576,-0.01964 z m 1.8226278,0 h 0.7555094 c 0.01862,0 0.036303,0.0068 0.049093,0.01964 0.013327,0.01201 0.019637,0.0291 0.019637,0.04858 v 0.04134 c 0,0.01862 -0.0068,0.0358 -0.019637,0.04858 -0.01279,0.01283 -0.030473,0.01964 -0.049093,0.01964 H 4.2507453 v 0.910022 c 0,0.01861 -0.0063,0.03424 -0.01912,0.04703 -0.01202,0.01338 -0.029613,0.0217 -0.049093,0.0217 h -0.054777 c -0.01862,0 -0.035786,-0.0089 -0.048576,-0.0217 -0.012827,-0.01279 -0.019637,-0.02842 -0.019637,-0.04703 V 2.905963 H 3.7763556 c -0.018609,0 -0.034235,-0.0068 -0.047025,-0.01964 -7.6e-4,-6.1e-4 -0.00198,-0.0013 -0.00258,-0.0021 -0.01158,-0.01289 -0.01757,-0.02819 -0.01757,-0.04651 V 2.7964 c 0,-0.01832 0.006,-0.03568 0.01757,-0.04858 6.8e-4,-5.4e-5 0.00188,-5.4e-5 0.00258,0 0.01295,-0.01293 0.029613,-0.01964 0.049092,-0.01964 z m 1.072286,0 h 0.5622395 c 0.01862,0 0.036303,0.0068 0.049093,0.01964 0.01333,0.01201 0.01912,0.0291 0.01912,0.04858 v 0.04134 c 0,0.01948 -0.0062,0.03564 -0.01912,0.04858 v 5.16e-4 5.17e-4 5.17e-4 5.17e-4 c -0.0129,0.01158 -0.030773,0.01757 -0.049093,0.01757 H 4.9736986 v 0.287321 h 0.4061767 c 0.01862,0 0.035786,0.0063 0.048576,0.01912 0.012827,0.01279 0.019637,0.03048 0.019637,0.04909 v 0.04289 c 0,0.01862 -0.0068,0.0363 -0.019637,0.04909 -0.01279,0.01283 -0.029966,0.01912 -0.048576,0.01912 H 4.9736986 V 3.70487 h 0.4743896 c 0.01862,0 0.036303,0.0068 0.049093,0.01964 0.01283,0.01279 0.01912,0.02997 0.01912,0.04858 v 0.04289 c 0,0.01861 -0.0063,0.03424 -0.01912,0.04703 -0.01279,0.01278 -0.030483,0.0217 -0.049093,0.0217 H 4.8507087 c -0.01862,0 -0.036303,-0.0089 -0.049093,-0.0217 C 4.7887887,3.85022 4.7819787,3.83459 4.7819787,3.81598 V 2.7964 c 0,-0.01862 0.0068,-0.03579 0.019637,-0.04858 0.01279,-0.01283 0.030483,-0.01964 0.049093,-0.01964 z M 3.2528734,2.890447 c -0.0091,0 -0.017254,0.0012 -0.023254,0.0057 -0.0061,0.0038 -0.00862,0.009 -0.00982,0.01395 L 3.1066291,3.361236 H 3.3996345 L 3.284396,2.910101 c -0.0013,-0.005 -0.00372,-0.01015 -0.00982,-0.01395 -0.006,-0.0046 -0.012604,-0.0057 -0.021704,-0.0057 z m 0.5059123,1.365291 h 0.054777 c 0.01862,0 0.035786,0.0068 0.048576,0.01964 0.012827,0.01279 0.019637,0.02997 0.019637,0.04858 v 0.31471 c 0.03026,-0.0047 0.060974,-0.0083 0.091984,-0.0083 0.0739,0 0.1416184,0.01684 0.2030884,0.04703 0.062019,0.03046 0.1126884,0.07901 0.1503784,0.144694 0.03808,0.06528 0.056327,0.147132 0.056327,0.245979 0,0.09885 -0.018307,0.181777 -0.056327,0.248047 -0.0377,0.06464 -0.08842,0.112187 -0.1503784,0.142627 -0.06146,0.03019 -0.1291885,0.04496 -0.2030884,0.04496 -0.08629,0 -0.1696266,-0.015 -0.2464966,-0.04703 -0.01031,-0.0052 -0.019572,-0.01355 -0.026872,-0.02325 -5.4e-5,-6.9e-4 -5.4e-5,-0.0014 0,-0.0021 -0.0061,-0.01104 -0.00982,-0.0233 -0.00982,-0.03514 V 4.32395 c 0,-0.01862 0.0063,-0.0363 0.01912,-0.04909 0.01279,-0.01283 0.030473,-0.01912 0.049093,-0.01912 z m -1.8029908,0.07803 h 0.054777 c 0.01948,0 0.037083,0.0063 0.049093,0.01964 0.01333,0.01202 0.01912,0.0291 0.01912,0.04858 V 5.31046 h 0.5333007 c 0.01862,0 0.036303,0.0063 0.049093,0.01912 0.012827,0.01279 0.019637,0.03048 0.019637,0.04909 v 0.04289 c 0,0.01861 -0.0068,0.03424 -0.019637,0.04703 -0.01279,0.01283 -0.030473,0.01964 -0.049093,0.01964 H 1.9557949 c -0.01862,0 -0.035786,-0.0068 -0.048576,-0.01964 C 1.8943919,5.4558 1.8875819,5.44017 1.8875819,5.42156 V 4.401984 c 0,-0.01862 0.0068,-0.03579 0.019637,-0.04858 0.01279,-0.01283 0.029966,-0.01964 0.048576,-0.01964 z m 1.1585856,0.296623 c 0.1138438,0 0.1991214,0.02756 0.2537313,0.08217 0.0557,0.05347 0.082166,0.137242 0.082166,0.248047 V 5.41381 c 0,0.01832 -0.006,0.03619 -0.01757,0.04909 -0.01156,0.01285 -0.026769,0.02086 -0.044959,0.02325 C 3.283952,5.49873 3.1986304,5.50372 3.1319504,5.50372 3.0216076,5.50372 2.9346779,5.48407 2.872018,5.44119 2.810338,5.39713 2.777517,5.331627 2.776417,5.249987 c 3.2e-4,-0.004 0.00238,-0.0076 0.00568,-0.0098 0.0032,-0.07659 0.030377,-0.141161 0.089917,-0.181901 0.06276,-0.04403 0.150079,-0.06459 0.2635498,-0.06459 h 0.1229899 v -0.03307 c 0,-0.05672 -0.010526,-0.09594 -0.031006,-0.117305 -0.02047,-0.02226 -0.057689,-0.03514 -0.1131714,-0.03514 -0.05782,0 -0.1133184,0.0047 -0.1679484,0.01395 -6.9e-4,5.4e-5 -0.00137,5.4e-5 -0.00207,0 -0.01816,0.0024 -0.03525,-0.0013 -0.05116,-0.0098 -0.01582,-0.0092 -0.026439,-0.02404 -0.028939,-0.04289 l -0.00413,-0.04289 c -0.0023,-0.01808 8.385e-4,-0.03482 0.00982,-0.04909 0.0093,-0.01465 0.024551,-0.02576 0.042891,-0.02946 0.06357,-0.01168 0.1307981,-0.01757 0.201538,-0.01757 z M 3.9577399,4.80454 c -0.02186,0 -0.048324,0.0019 -0.075964,0.0057 v 0.503846 c 0.02881,0.0058 0.058724,0.0098 0.091984,0.0098 0.07423,0 0.1261673,-0.0209 0.1617472,-0.06253 0.03558,-0.04163 0.054777,-0.10528 0.054777,-0.19327 0,-0.09729 -0.021409,-0.162772 -0.062528,-0.201022 -5.4e-5,-6.9e-4 -5.4e-5,-0.0014 0,-0.0021 -0.04231,-0.04034 -0.098361,-0.06046 -0.1700155,-0.06046 z m -0.822172,0.366903 c -0.05948,-1e-6 -0.1015644,0.0098 -0.1286743,0.02377 -0.02488,0.01385 -0.037207,0.03 -0.037207,0.05426 0,0.02642 0.011594,0.04507 0.039274,0.05891 0.02767,0.01388 0.072249,0.02119 0.1328085,0.02119 0.03173,0 0.07093,-0.0035 0.1167887,-0.0077 V 5.171495 Z m 1.5311727,0.290939 h 0.6624918 c 0.01862,0 0.035786,0.0068 0.048576,0.01964 0.012827,0.01279 0.019637,0.03047 0.019637,0.04909 v 0.04082 c 0,0.01862 -0.0068,0.0363 -0.019637,0.04909 -0.01202,0.01333 -0.029096,0.01912 -0.048576,0.01912 H 4.6667406 c -0.01862,0 -0.035786,-0.0063 -0.048576,-0.01912 -0.012827,-0.01279 -0.019637,-0.03047 -0.019637,-0.04909 v -0.04082 c 0,-0.01862 0.0068,-0.0363 0.019637,-0.04909 0.01279,-0.01283 0.029956,-0.01964 0.048576,-0.01964 z" /></g></svg>
